<?xml version="1.0" standalone="no"?><!DOCTYPE svg PUBLIC "-//W3C//DTD SVG 1.1//EN" "http://www.w3.org/Graphics/SVG/1.1/DTD/svg11.dtd"><svg t="1740965666355" class="icon" viewBox="0 0 1024 1024" version="1.1" xmlns="http://www.w3.org/2000/svg" p-id="4056" id="mx_n_1740965666356" data-spm-anchor-id="a313x.search_index.0.i11.42203a81LGeu1q" xmlns:xlink="http://www.w3.org/1999/xlink" width="200" height="200"><path d="M357.461333 503.978667l54.698667 31.061333 0.341333-179.84c0-7.381333 4.138667-14.421333 10.538667-17.92l128.981333-73.6 3.84-2.261333a122.624 122.624 0 0 0-129.28-16.298667 120.064 120.064 0 0 0-70.101333 108.458667v149.12c0 0.341333 0.341333 0.981333 0.981333 1.28z" fill="#ff583f" p-id="4057"></path><path d="M441.898667 552.021333l70.101333 39.978667 70.4-40.021333v-79.957334L512 431.957333l-70.101333 40.021334v79.957333z" fill="#ff583f" p-id="4058"></path><path d="M295.68 565.76l130.56 74.538667c0.64 0.341333 1.28 0.341333 1.92 0l54.4-31.018667-157.738667-89.941333a20.736 20.736 0 0 1-10.581333-17.92V349.44A121.770667 121.770667 0 0 0 250.88 401.92c0 0.64-0.298667 0.938667-0.64 1.578667A118.912 118.912 0 0 0 295.68 565.76z m146.261333-189.781333v62.421333l157.738667-89.941333c6.4-3.84 14.421333-3.84 21.12 0l129.28 73.6 3.84 2.261333a120.021333 120.021333 0 0 0-50.56-118.741333 122.709333 122.709333 0 0 0-130.261333-5.418667l-130.56 74.24a2.432 2.432 0 0 0-0.597334 1.578667z m224.597334 143.701333l-54.698667-31.061333v179.84a20.736 20.736 0 0 1-10.581333 17.92l-129.28 73.6-3.84 2.261333c22.101333 17.92 49.28 27.818667 77.781333 27.818667a121.002667 121.002667 0 0 0 121.6-119.978667v-148.821333a1.749333 1.749333 0 0 0-0.938667-1.578667z" fill="#ff583f" p-id="4059"></path><path d="M512 0C229.248 0 0 229.248 0 512s229.248 512 512 512 512-229.248 512-512S794.752 0 512 0z m297.898667 642.858667a160.682667 160.682667 0 0 1-107.818667 77.44A163.413333 163.413333 0 0 1 546.56 832h-1.578667a161.237333 161.237333 0 0 1-120.96-53.461333 164.352 164.352 0 0 1-176-77.44 157.866667 157.866667 0 0 1-13.781333-130.858667 159.829333 159.829333 0 0 1-20.138667-189.098667 162.986667 162.986667 0 0 1 108.16-77.44A163.413333 163.413333 0 0 1 477.738667 192h1.28c46.08 0 89.941333 19.2 120.96 53.461333a164.352 164.352 0 0 1 176.042666 77.44 157.866667 157.866667 0 0 1 13.738667 130.858667 159.872 159.872 0 0 1 20.138667 189.098667z" fill="#ff583f" p-id="4060" data-spm-anchor-id="a313x.search_index.0.i10.42203a81LGeu1q" class=""></path><path d="M582.4 647.978667v-62.378667l-157.738667 89.898667a20.778667 20.778667 0 0 1-21.12 0l-129.28-73.6-3.84-2.218667a119.168 119.168 0 0 0 14.378667 80.298667 123.392 123.392 0 0 0 166.4 44.16l130.56-74.538667a2.432 2.432 0 0 0 0.64-1.621333z m146.261333-189.738667L598.101333 384a2.048 2.048 0 0 0-1.962666 0l-54.357334 31.018667 157.738667 89.941333a21.333333 21.333333 0 0 1 10.538667 17.578667v152.021333a119.04 119.04 0 0 0 64-53.76 119.552 119.552 0 0 0-45.397334-162.56z" fill="#ff583f" p-id="4061"></path></svg>
