<?xml version="1.0" encoding="UTF-8"?>
<svg width="256" height="256" viewBox="0 0 256 256" fill="none" xmlns="http://www.w3.org/2000/svg">
    <!-- 白色背景 -->
    <rect width="256" height="256" fill="white"/>
    
    <!-- 机器人头部背景 -->
    <rect x="48" y="48" width="160" height="160" rx="80" fill="#1e1f2b"/>
    
    <!-- 机器人眼睛 -->
    <circle cx="96" cy="112" r="16" fill="#00A3FF"/>
    <circle cx="160" cy="112" r="16" fill="#00A3FF"/>
    
    <!-- 机器人天线 -->
    <line x1="128" y1="32" x2="128" y2="64" stroke="#00A3FF" stroke-width="8" stroke-linecap="round"/>
    
    <!-- 对话气泡 -->
    <path d="M200 140C200 140 220 140 220 160C220 180 200 200 180 200H76C56 200 36 180 36 160C36 140 56 140 56 140" 
          stroke="#00A3FF" stroke-width="8" stroke-linecap="round"/>
    
    <!-- 机器人笑脸 -->
    <path d="M96 160C96 160 112 176 128 176C144 176 160 160 160 160" 
          stroke="#00A3FF" stroke-width="8" stroke-linecap="round"/>
</svg>
